<?xml version="1.0" encoding="utf-8"?>
<!-- Generator: Adobe Illustrator 21.1.0, SVG Export Plug-In . SVG Version: 6.00 Build 0)  -->
<svg version="1.1" id="Layer_1" xmlns="http://www.w3.org/2000/svg" xmlns:xlink="http://www.w3.org/1999/xlink" x="0px" y="0px"
	 width="148px" height="189.9px" viewBox="0 0 148 189.9" style="enable-background:new 0 0 148 189.9;" xml:space="preserve">
<style type="text/css">
	.st0{fill:#FFFFFF;}
	.st1{fill:none;stroke:#FFFFFF;stroke-width:10;stroke-miterlimit:10;}
</style>
<g>
	<path class="st0" d="M46.3,60.3c2.5,0,4.6-1.8,5.1-4.3c2-10.7,11.4-18.7,22.6-18.7S94.6,45.4,96.6,56c0.5,2.5,2.6,4.3,5.1,4.3h0
		c3.3,0,5.7-3,5.1-6.2C103.9,38.6,90.3,26.9,74,26.9S44.1,38.6,41.2,54.1C40.6,57.3,43,60.3,46.3,60.3L46.3,60.3z"/>
</g>
<path class="st1" d="M117.2,159.4H30.7c-7.4,0-13.4-6-13.4-13.4V86c0-7.4,6-13.4,13.4-13.4h86.5c7.4,0,13.4,6,13.4,13.4v60
	C130.6,153.4,124.6,159.4,117.2,159.4z"/>
</svg>
