<?xml version="1.0" encoding="utf-8"?>
<!-- Generator: Adobe Illustrator 21.1.0, SVG Export Plug-In . SVG Version: 6.00 Build 0)  -->
<svg version="1.1" id="Layer_1" xmlns="http://www.w3.org/2000/svg" xmlns:xlink="http://www.w3.org/1999/xlink" x="0px" y="0px"
	 width="179.9px" height="190.9px" viewBox="0 0 179.9 190.9" style="enable-background:new 0 0 179.9 190.9;" xml:space="preserve"
	>
<g>
	<path d="M169.3,119.9c3-8.6,4.7-17.9,4.7-27.5c0-9.6-1.6-18.9-4.7-27.5c-0.1-0.3-0.2-0.5-0.3-0.8C157.4,31.8,126.5,8.7,90.3,8.7
		S23.1,31.8,11.5,64.1c-0.1,0.2-0.2,0.5-0.3,0.8c-3,8.6-4.7,17.9-4.7,27.5c0,9.6,1.6,18.9,4.7,27.5c0.1,0.3,0.2,0.5,0.3,0.8
		c11.6,32.3,42.6,55.4,78.8,55.4s67.2-23.1,78.8-55.4C169.2,120.4,169.3,120.2,169.3,119.9L169.3,119.9z M90.3,164.1
		c-3.2,0-8.3-5.8-12.6-18.7c-2.1-6.2-3.7-13.4-4.9-21.1h35.1c-1.2,7.8-2.9,14.9-4.9,21.1C98.6,158.3,93.5,164.1,90.3,164.1
		L90.3,164.1z M71.3,112.3c-0.6-6.4-0.9-13.1-0.9-19.9c0-6.8,0.3-13.5,0.9-19.9h38c0.6,6.4,0.9,13.1,0.9,19.9
		c0,6.8-0.3,13.5-0.9,19.9H71.3z M18.6,92.4c0-6.9,1-13.6,2.8-19.9h37.8c-0.6,6.5-0.8,13.2-0.8,19.9c0,6.7,0.3,13.4,0.8,19.9H21.4
		C19.6,106,18.6,99.3,18.6,92.4L18.6,92.4z M90.3,20.7c3.2,0,8.3,5.8,12.6,18.7c2.1,6.2,3.7,13.4,4.9,21.1H72.7
		c1.2-7.8,2.9-14.9,4.9-21.1C82,26.4,87.1,20.7,90.3,20.7L90.3,20.7z M121.3,72.5h37.8c1.8,6.3,2.8,13,2.8,19.9
		c0,6.9-1,13.6-2.8,19.9h-37.8c0.6-6.5,0.8-13.2,0.8-19.9C122.2,85.7,121.9,79,121.3,72.5L121.3,72.5z M154.5,60.5H120
		c-2.1-14.7-5.8-27.9-10.9-37.3C128.9,28.6,145.4,42.3,154.5,60.5L154.5,60.5z M71.5,23.2c-5.1,9.4-8.8,22.6-10.9,37.3H26.1
		C35.1,42.3,51.6,28.6,71.5,23.2L71.5,23.2z M26.1,124.3h34.5c2.1,14.7,5.8,27.9,10.9,37.3C51.6,156.2,35.1,142.4,26.1,124.3
		L26.1,124.3z M109,161.6c5.1-9.4,8.8-22.6,10.9-37.3h34.5C145.4,142.4,128.9,156.2,109,161.6L109,161.6z M109,161.6"/>
</g>
</svg>
