<svg xmlns="http://www.w3.org/2000/svg" width="17" height="17.031" viewBox="0 0 17 17.031">
  <metadata><?xpacket begin="﻿" id="W5M0MpCehiHzreSzNTczkc9d"?>
<x:xmpmeta xmlns:x="adobe:ns:meta/" x:xmptk="Adobe XMP Core 5.6-c140 79.160451, 2017/05/06-01:08:21        ">
   <rdf:RDF xmlns:rdf="http://www.w3.org/1999/02/22-rdf-syntax-ns#">
      <rdf:Description rdf:about=""/>
   </rdf:RDF>
</x:xmpmeta>
                                                                                                    
                                                                                                    
                                                                                                    
                                                                                                    
                                                                                                    
                                                                                                    
                                                                                                    
                                                                                                    
                                                                                                    
                                                                                                    
                                                                                                    
                                                                                                    
                                                                                                    
                                                                                                    
                                                                                                    
                                                                                                    
                                                                                                    
                                                                                                    
                                                                                                    
                                                                                                    
                           
<?xpacket end="w"?></metadata>
<defs>
    <style>
      .cls-1 {
        fill: #4a4a4a;
        fill-rule: evenodd;
      }
    </style>
  </defs>
  <path id="Forma_1" data-name="Forma 1" class="cls-1" d="M3119.3,35.013a8.5,8.5,0,1,0,8.5,8.5A8.516,8.516,0,0,0,3119.3,35.013Zm6.02,4.149a15.715,15.715,0,0,1-2.82.841,11.915,11.915,0,0,0-1.96-3.814A7.433,7.433,0,0,1,3125.32,39.161Zm-3.61,6.672a17.658,17.658,0,0,0-4.81,0,10.936,10.936,0,0,1,0-4.627,15.809,15.809,0,0,0,4.81,0A10.936,10.936,0,0,1,3121.71,45.834Zm-0.28-5.666a16.66,16.66,0,0,1-4.26,0,11.088,11.088,0,0,1,2.13-3.811A10.769,10.769,0,0,1,3121.43,40.167Zm-3.37-3.979A12.091,12.091,0,0,0,3116.11,40a15.715,15.715,0,0,1-2.82-.841A7.436,7.436,0,0,1,3118.06,36.188Zm-6.19,7.328a7.486,7.486,0,0,1,.84-3.435,17.3,17.3,0,0,0,3.13.962,12.166,12.166,0,0,0,0,4.956,17.113,17.113,0,0,0-3.13.957A7.5,7.5,0,0,1,3111.87,43.516Zm1.42,4.355a15.627,15.627,0,0,1,2.82-.841,12.1,12.1,0,0,0,1.95,3.814A7.438,7.438,0,0,1,3113.29,47.871Zm3.88-1.006a16.605,16.605,0,0,1,4.26,0,10.777,10.777,0,0,1-2.13,3.811A11.1,11.1,0,0,1,3117.17,46.865Zm3.37,3.979a11.92,11.92,0,0,0,1.96-3.814,15.963,15.963,0,0,1,2.82.841A7.435,7.435,0,0,1,3120.54,50.844ZM3122.76,46a11.818,11.818,0,0,0,0-4.954,17,17,0,0,0,3.14-.963,7.449,7.449,0,0,1,0,6.873A17.2,17.2,0,0,0,3122.76,46Z" transform="translate(-3110.81 -35)"/>
</svg>
