<?xml version="1.0" encoding="utf-8"?>
<!-- Generator: Adobe Illustrator 21.1.0, SVG Export Plug-In . SVG Version: 6.00 Build 0)  -->
<svg version="1.1" id="Layer_1" xmlns="http://www.w3.org/2000/svg" xmlns:xlink="http://www.w3.org/1999/xlink" x="0px" y="0px"
	 width="396.7px" height="410px" viewBox="0 0 396.7 410" style="enable-background:new 0 0 396.7 410;" xml:space="preserve">
<style type="text/css">
	.st0{fill:none;enable-background:new    ;}
</style>
<path class="st0" d="z"/>
<path class="st0" d="z"/>
<g>
	<path d="M191.8,77.9c-65.9,0-119.5,53.6-119.5,119.5c0,36.6,16.5,69.4,42.5,91.3v83.6c0,16.3,13.6,29.5,30.2,29.5h94.5
		c16.7,0,30.2-13.2,30.2-29.5v-84.4c25.4-21.9,41.5-54.3,41.5-90.5C311.3,131.6,257.7,77.9,191.8,77.9z M244.8,372.3
		c0,2.5-2.4,4.5-5.2,4.5h-94.5c-2.9,0-5.2-2-5.2-4.5v-14.4h105V372.3z M244.8,332.9h-105V305c15.7,7.6,33.4,11.9,52,11.9
		c19,0,37-4.5,53-12.4V332.9z M191.8,291.9c-52.1,0-94.5-42.4-94.5-94.5c0-52.1,42.4-94.5,94.5-94.5c52.1,0,94.5,42.4,94.5,94.5
		C286.3,249.6,243.9,291.9,191.8,291.9z"/>
	<path d="M76.4,296l-17.2,17.3c-4.1,4.1-4.1,10.8,0.1,14.8c2,2,4.7,3,7.4,3c2.7,0,5.4-1,7.5-3.1l17.2-17.3
		c4.1-4.1,4.1-10.8-0.1-14.8C87.1,291.8,80.5,291.9,76.4,296z"/>
	<path d="M40.4,224.5l-23.8,5.4c-5.7,1.3-9.2,6.9-7.9,12.6c1.1,4.9,5.4,8.2,10.2,8.2c0.8,0,1.5-0.1,2.3-0.3L45,245
		c5.7-1.3,9.2-6.9,7.9-12.6C51.7,226.8,46,223.2,40.4,224.5z"/>
	<path d="M16.5,157.6l23.7,5.7c0.8,0.2,1.6,0.3,2.5,0.3c4.7,0,9-3.2,10.2-8c1.4-5.6-2.1-11.3-7.8-12.7l-23.7-5.7
		c-5.6-1.4-11.3,2.1-12.7,7.8S10.8,156.2,16.5,157.6z"/>
	<path d="M74.3,90.5c2.1,2.1,4.8,3.1,7.5,3.1c2.7,0,5.3-1,7.4-3c4.1-4.1,4.2-10.7,0.1-14.8L72.1,58.4c-4.1-4.1-10.7-4.2-14.8-0.1
		c-4.1,4.1-4.2,10.7-0.1,14.8L74.3,90.5z"/>
	<path d="M141.7,45.8c1.2,4.7,5.5,7.8,10.1,7.8c0.9,0,1.8-0.1,2.7-0.4c5.6-1.5,8.9-7.2,7.5-12.8l-6.2-23.6
		c-1.5-5.6-7.2-8.9-12.8-7.5c-5.6,1.5-8.9,7.2-7.5,12.8L141.7,45.8z"/>
	<path d="M229.9,53c1,0.3,2,0.4,3,0.4c4.5,0,8.7-2.9,10.1-7.5l7-23.4c1.7-5.6-1.5-11.4-7.1-13.1c-5.6-1.7-11.4,1.5-13.1,7.1l-7,23.4
		C221.2,45.5,224.3,51.3,229.9,53z"/>
	<path d="M313.4,58.4l-17.1,17.4c-4.1,4.1-4,10.8,0.2,14.8c2,2,4.7,3,7.3,3c2.7,0,5.4-1.1,7.5-3.2l17.1-17.4
		c4.1-4.1,4-10.8-0.2-14.8C324.1,54.2,317.4,54.2,313.4,58.4z"/>
	<path d="M343.5,163.6c0.8,0,1.5-0.1,2.3-0.3l23.8-5.4c5.7-1.3,9.2-6.9,7.9-12.6c-1.3-5.7-6.9-9.2-12.6-7.9l-23.8,5.4
		c-5.7,1.3-9.2,6.9-7.9,12.6C334.4,160.3,338.7,163.6,343.5,163.6z"/>
	<path d="M370,231.6l-23.5-6.5c-5.6-1.6-11.4,1.7-12.9,7.3c-1.5,5.6,1.7,11.4,7.3,12.9l23.5,6.5c0.9,0.3,1.9,0.4,2.8,0.4
		c4.6,0,8.8-3,10.1-7.7C378.8,238.9,375.6,233.1,370,231.6z"/>
	<path d="M310.3,297.2c-4.1-4.1-10.7-4.2-14.8-0.2c-4.1,4.1-4.2,10.7-0.2,14.8l17.1,17.5c2.1,2.1,4.8,3.2,7.5,3.2c2.6,0,5.3-1,7.3-3
		c4.1-4.1,4.2-10.7,0.2-14.8L310.3,297.2z"/>
</g>
</svg>
