<svg xmlns="http://www.w3.org/2000/svg" width="9.97" height="9.969" viewBox="0 0 9.97 9.969">
    <metadata><?xpacket begin="﻿" id="W5M0MpCehiHzreSzNTczkc9d"?>
<x:xmpmeta xmlns:x="adobe:ns:meta/" x:xmptk="Adobe XMP Core 5.6-c140 79.160451, 2017/05/06-01:08:21">
    <rdf:RDF xmlns:rdf="http://www.w3.org/1999/02/22-rdf-syntax-ns#">
        <rdf:Description rdf:about=""/>
   </rdf:RDF>
</x:xmpmeta>
<?xpacket end="w"?></metadata>
<defs>
    <style>
        .cls-1{fill-rule: evenodd}
    </style>
</defs>
<path 
    id="Forma_1" 
    data-name="Forma 1" 
    class="cls-1" 
    d="M4578.19,344.757a0.686,0.686,0,0,0,.97,0l3.81-3.81,3.81,3.81a0.7,0.7,0,0,0,.98,0,0.686,0.686,0,0,0,0-.973l-3.81-3.81,3.81-3.811a0.686,0.686,0,0,0,0-.973,0.7,0.7,0,0,0-.98,0L4582.97,339l-3.81-3.811a0.687,0.687,0,1,0-.97.973l3.81,3.811-3.81,3.81A0.686,0.686,0,0,0,4578.19,344.757Z" 
    transform="translate(-4578 -335)"
/>
</svg>
