<?xml version="1.0" encoding="utf-8"?>
<!-- Generator: Adobe Illustrator 21.1.0, SVG Export Plug-In . SVG Version: 6.00 Build 0)  -->
<svg version="1.1" id="Layer_1" xmlns="http://www.w3.org/2000/svg" xmlns:xlink="http://www.w3.org/1999/xlink" x="0px" y="0px"
	 width="317px" height="291px" viewBox="0 0 317 291" style="enable-background:new 0 0 317 291;" xml:space="preserve">
<path d="M298,142.6h-65.9l-32.5-56.3l33.1-57.1c1.7-2.9,0.7-6.5-2.2-8.2c-2.9-1.7-6.5-0.7-8.2,2.2l-33,57h-65.3l-33-57
	c-1.7-2.9-5.3-3.8-8.2-2.2c-2.9,1.7-3.8,5.3-2.2,8.2l33.1,57.1l-32.5,56.3H15.1c-3.3,0-6,2.7-6,6c0,3.3,2.7,6,6,6h65.9l32.5,56.3
	l-33.1,57.1c-1.7,2.9-0.7,6.5,2.2,8.2c0.9,0.5,2,0.8,3,0.8c2.1,0,4.1-1.1,5.2-3l33-57h65.3l33,57c1.1,1.9,3.1,3,5.2,3
	c1,0,2.1-0.3,3-0.8c2.9-1.7,3.8-5.3,2.2-8.2l-33.1-57.1l32.5-56.3H298c3.3,0,6-2.7,6-6C304,145.2,301.3,142.6,298,142.6L298,142.6z
	 M189.1,204.9H124l-32.6-56.4L124,92.2h65.1l32.6,56.4L189.1,204.9z M189.1,204.9"/>
</svg>
