<?xml version="1.0" standalone="no"?>
<!DOCTYPE svg PUBLIC "-//W3C//DTD SVG 20010904//EN"
 "http://www.w3.org/TR/2001/REC-SVG-20010904/DTD/svg10.dtd">
<svg version="1.0" xmlns="http://www.w3.org/2000/svg"
 width="261.000000pt" height="261.000000pt" viewBox="0 0 261.000000 261.000000"
 preserveAspectRatio="xMidYMid meet">
<metadata>
Created by potrace 1.11, written by Peter Selinger 2001-2013
</metadata>
<g transform="translate(0.000000,261.000000) scale(0.100000,-0.100000)"
fill="#000000" stroke="none">
<path d="M10 1877 l0 -733 113 -17 c337 -52 589 -88 591 -85 1 1 119 274 262
606 l259 602 63 -2 63 -3 290 -670 c159 -368 292 -672 297 -676 4 -4 122 -14
262 -23 140 -9 288 -19 328 -22 l72 -6 0 881 0 881 -1300 0 -1300 0 0 -733z"/>
<path d="M1076 1536 c-120 -279 -215 -510 -212 -514 10 -9 904 -118 911 -110
2 2 -328 777 -473 1112 -6 15 -59 -98 -226 -488z"/>
<path d="M10 550 l0 -540 1300 0 1300 0 0 395 c0 309 -3 395 -12 395 -7 0
-150 9 -317 20 -167 11 -305 19 -307 17 -2 -2 41 -106 96 -232 55 -127 100
-233 100 -237 0 -5 -35 -8 -78 -8 l-77 0 -106 248 -106 247 -164 18 c-90 10
-308 35 -483 57 -176 22 -321 38 -322 37 -2 -1 -60 -135 -129 -297 -69 -162
-130 -299 -134 -303 -4 -4 -40 -7 -79 -5 l-70 3 134 309 c73 170 132 311 130
313 -2 2 -107 19 -234 38 -127 19 -274 41 -326 50 -53 8 -100 15 -106 15 -7 0
-10 -183 -10 -540z"/>
</g>
</svg>
