<?xml version="1.0" encoding="UTF-8"?>
<svg width="1835.5" height="417.28" version="1.1" viewBox="0 0 1835.5 417.28" xmlns="http://www.w3.org/2000/svg" xmlns:cc="http://creativecommons.org/ns#" xmlns:dc="http://purl.org/dc/elements/1.1/" xmlns:rdf="http://www.w3.org/1999/02/22-rdf-syntax-ns#">
 <metadata>
  <rdf:RDF>
   <cc:Work rdf:about="">
    <dc:format>image/svg+xml</dc:format>
    <dc:type rdf:resource="http://purl.org/dc/dcmitype/StillImage"/>
    <dc:title/>
   </cc:Work>
  </rdf:RDF>
 </metadata>
 <defs>
  <clipPath id="clipPath1042">
   <path d="m0 1e3h1e3v-1e3h-1e3z"/>
  </clipPath>
 </defs>
 <g transform="matrix(1.8393 0 0 -1.8393 -3.0683 1862.8)">
  <g transform="translate(.5196 407.11)">
   <g clip-path="url(#clipPath1042)">
    <g transform="translate(916.99,530.28)">
     <path d="m0 0h-26.258v-59.358c0-4.974 0.951-8.5 2.863-10.58 1.907-2.089 4.837-3.163 8.788-3.227 3.945-0.068 8.814 0.033 14.607 0.301v-15.723c-15.003-2.016-25.993-0.774-32.97 3.732-6.981 4.5-10.467 13.001-10.467 25.497v59.358h-19.545v16.934h19.545v18.255h17.179v-18.255h26.258z" fill="#fff"/>
    </g>
    <path d="m956.74 480.61h17.179v-62.31h-17.179z" fill="#fff"/>
    <path d="m934.17 458.04h62.31v-17.179h-62.31z" fill="#fff"/>
    <g transform="translate(247.86,440.76)">
     <path d="m0 0c-14.877 0-27.245 5.073-37.116 15.222-9.875 10.143-14.808 22.745-14.808 37.799 0 15.049 4.933 27.65 14.808 37.798 9.871 10.144 22.239 15.218 37.116 15.218 9.738 0 18.489-2.385 26.258-7.154 7.768-4.774 13.556-11.19 17.375-19.254l-14.412-8.464c-2.503 5.369-6.354 9.674-11.55 12.901-5.202 3.222-11.091 4.837-17.671 4.837-9.871 0-18.135-3.426-24.779-10.28-6.649-6.858-9.971-15.391-9.971-25.602 0-10.081 3.322-18.549 9.971-25.403 6.644-6.853 14.908-10.28 24.779-10.28 6.58 0 12.506 1.579 17.771 4.737 5.26 3.154 9.279 7.423 12.041 12.802l14.613-8.67c-4.214-7.932-10.267-14.28-18.167-19.049-7.896-4.769-16.652-7.158-26.258-7.158" fill="#fff"/>
    </g>
    <g transform="translate(354.28,457.9)">
     <path d="m0 0c9.87 0 18.162 3.427 24.879 10.28 6.712 6.854 10.066 15.386 10.066 25.603 0 10.212-3.354 18.744-10.066 25.602-6.717 6.854-15.009 10.281-24.879 10.281-9.743 0-17.967-3.427-24.679-10.281-6.713-6.858-10.071-15.39-10.071-25.602 0-10.217 3.358-18.749 10.071-25.603 6.712-6.853 14.936-10.28 24.679-10.28m36.92-1.815c-10.139-10.217-22.444-15.323-36.92-15.323-14.48 0-26.754 5.106-36.82 15.323-10.072 10.211-15.105 22.781-15.105 37.698s5.033 27.482 15.105 37.699c10.066 10.211 22.34 15.317 36.82 15.317 14.476 0 26.781-5.106 36.92-15.317 10.135-10.217 15.204-22.782 15.204-37.699s-5.069-27.487-15.204-37.698" fill="#fff"/>
    </g>
    <g transform="translate(471.9,546.73)">
     <path d="m0 0c11.868 0 21.376-3.819 28.529-11.462 7.145-7.643 10.721-18.01 10.721-31.09v-63.419h-17.599v62.384c0 8.399-2.228 14.908-6.677 19.52-4.453 4.617-10.59 6.921-18.411 6.921-8.771 0-15.85-2.79-21.246-8.367-5.394-5.577-8.089-14.148-8.089-25.717v-54.741h-17.605v105.97h17.605v-17.557c7.148 11.704 18.069 17.557 32.772 17.557" fill="#fff"/>
    </g>
    <g transform="translate(580.49,546.73)">
     <path d="m0 0c11.868 0 21.376-3.819 28.529-11.462 7.145-7.643 10.721-18.01 10.721-31.09v-63.419h-17.599v62.384c0 8.399-2.229 14.908-6.677 19.52-4.453 4.617-10.59 6.921-18.411 6.921-8.771 0-15.85-2.79-21.246-8.367-5.395-5.577-8.09-14.148-8.09-25.717v-54.741h-17.604v105.97h17.604v-17.557c7.149 11.704 18.07 17.557 32.773 17.557" fill="#fff"/>
    </g>
    <g transform="translate(685.63,530.27)">
     <path d="m0 0c-9.215 0-16.852-2.657-22.903-7.963-6.058-5.311-9.808-12.397-11.255-21.271h65.945c-1.451 9.543-5.133 16.801-11.058 21.776-5.92 4.969-12.833 7.458-20.729 7.458m-34.158-44.551c1.707-9.007 5.757-15.996 12.141-20.966 6.385-4.974 14.249-7.459 23.596-7.459 13.029 0 22.508 4.901 28.429 14.713l14.612-8.465c-9.611-15.19-24.087-22.78-43.436-22.78-15.664 0-28.402 5.006-38.205 15.016-9.806 10.012-14.708 22.682-14.708 38.004 0 15.186 4.801 27.819 14.413 37.899 9.607 10.08 22.044 15.118 37.316 15.118 14.477 0 26.29-5.211 35.437-15.623 9.147-10.417 13.725-22.949 13.725-37.599 0-2.553-0.2-5.174-0.596-7.858z" fill="#fff"/>
    </g>
    <g transform="translate(800.73,440.76)">
     <path d="m0 0c-14.876 0-27.245 5.073-37.116 15.222-9.875 10.143-14.808 22.745-14.808 37.799 0 15.049 4.933 27.65 14.808 37.798 9.871 10.144 22.24 15.218 37.116 15.218 9.738 0 18.49-2.385 26.258-7.154 7.768-4.774 13.556-11.19 17.375-19.254l-14.412-8.464c-2.503 5.369-6.353 9.674-11.55 12.901-5.202 3.222-11.091 4.837-17.671 4.837-9.87 0-18.135-3.426-24.778-10.28-6.65-6.858-9.971-15.391-9.971-25.602 0-10.081 3.321-18.549 9.971-25.403 6.643-6.853 14.908-10.28 24.778-10.28 6.58 0 12.506 1.579 17.771 4.737 5.26 3.154 9.279 7.423 12.041 12.802l14.613-8.67c-4.214-7.932-10.267-14.28-18.167-19.049-7.896-4.769-16.652-7.158-26.258-7.158" fill="#fff"/>
    </g>
    <g transform="translate(65.726,494.01)">
     <path d="m0 0 2.552-0.339c16.105-2.107 33.011-4.11 50.252-5.944l3.324-0.343-29.486 68.776zm76.116-53.251-14.56 33.958-1.139 0.119c-21.603 2.181-43.1 4.687-63.901 7.445l-1.463 0.192-17.885-41.714h-17.482l18.945 43.84-2.528 0.361c-13.578 1.944-26.222 3.832-38.349 5.726v12.264c15.977-2.593 32.934-4.999 44.348-6.589l1.467-0.206 37.004 85.545h12.699l41.586-96.246 1.144-0.114c15.484-1.488 29.395-2.684 42.425-3.638l2.815-12.31c-13.682 1.029-26.162 2.059-37.617 3.107l-3.274 0.288 13.814-32.028z" fill="#fff"/>
    </g>
   </g>
  </g>
 </g>
</svg>
