<?xml version="1.0" encoding="UTF-8"?>
<svg width="1835.5" height="417.28" version="1.1" viewBox="0 0 1835.5 417.28" xmlns="http://www.w3.org/2000/svg" xmlns:cc="http://creativecommons.org/ns#" xmlns:dc="http://purl.org/dc/elements/1.1/" xmlns:rdf="http://www.w3.org/1999/02/22-rdf-syntax-ns#">
 <metadata>
  <rdf:RDF>
   <cc:Work rdf:about="">
    <dc:format>image/svg+xml</dc:format>
    <dc:type rdf:resource="http://purl.org/dc/dcmitype/StillImage"/>
    <dc:title/>
   </cc:Work>
  </rdf:RDF>
 </metadata>
 <defs>
  <clipPath id="clipPath741">
   <path d="m0 1e3h1e3v-1e3h-1e3z"/>
  </clipPath>
 </defs>
 <g transform="matrix(1.8393 0 0 -1.8393 -3.069 1862.8)">
  <g transform="translate(-5.0283e-7,407.11)">
   <g clip-path="url(#clipPath741)">
    <g transform="translate(917.51,530.28)">
     <path d="m0 0h-26.258v-59.358c0-4.974 0.951-8.5 2.862-10.58 1.907-2.089 4.838-3.163 8.788-3.227 3.945-0.068 8.815 0.033 14.608 0.301v-15.723c-15.004-2.016-25.994-0.774-32.97 3.732-6.981 4.5-10.467 13.001-10.467 25.497v59.358h-19.545v16.934h19.545v18.255h17.179v-18.255h26.258z" fill="#848c91"/>
    </g>
    <path d="m957.26 480.61h17.179v-62.31h-17.179z" fill="#75bee9"/>
    <path d="m934.69 458.04h62.31v-17.179h-62.31z" fill="#75bee9"/>
    <g transform="translate(248.38,440.76)">
     <path d="m0 0c-14.876 0-27.246 5.073-37.116 15.222-9.875 10.143-14.808 22.745-14.808 37.799 0 15.049 4.933 27.65 14.808 37.798 9.87 10.144 22.24 15.218 37.116 15.218 9.739 0 18.49-2.385 26.258-7.154 7.768-4.774 13.556-11.19 17.375-19.254l-14.413-8.464c-2.503 5.369-6.352 9.674-11.55 12.901-5.201 3.222-11.089 4.837-17.67 4.837-9.871 0-18.135-3.426-24.779-10.28-6.649-6.858-9.971-15.391-9.971-25.602 0-10.081 3.322-18.549 9.971-25.403 6.644-6.853 14.908-10.28 24.779-10.28 6.581 0 12.505 1.579 17.771 4.737 5.26 3.154 9.279 7.423 12.041 12.802l14.612-8.67c-4.214-7.932-10.266-14.28-18.166-19.049-7.896-4.769-16.652-7.158-26.258-7.158" fill="#848c91"/>
    </g>
    <g transform="translate(354.8,457.9)">
     <path d="m0 0c9.871 0 18.162 3.427 24.879 10.28 6.713 6.854 10.066 15.386 10.066 25.603 0 10.212-3.353 18.744-10.066 25.602-6.717 6.854-15.008 10.281-24.879 10.281-9.743 0-17.966-3.427-24.679-10.281-6.712-6.858-10.071-15.39-10.071-25.602 0-10.217 3.359-18.749 10.071-25.603 6.713-6.853 14.936-10.28 24.679-10.28m36.92-1.815c-10.139-10.217-22.444-15.323-36.92-15.323-14.48 0-26.754 5.106-36.82 15.323-10.071 10.211-15.104 22.781-15.104 37.698s5.033 27.482 15.104 37.699c10.066 10.211 22.34 15.317 36.82 15.317 14.476 0 26.781-5.106 36.92-15.317 10.135-10.217 15.205-22.782 15.205-37.699s-5.07-27.487-15.205-37.698" fill="#848c91"/>
    </g>
    <g transform="translate(472.42,546.73)">
     <path d="m0 0c11.868 0 21.376-3.819 28.53-11.462 7.144-7.643 10.72-18.01 10.72-31.09v-63.419h-17.599v62.384c0 8.399-2.229 14.908-6.677 19.52-4.453 4.617-10.59 6.921-18.411 6.921-8.771 0-15.85-2.79-21.245-8.367-5.396-5.577-8.091-14.148-8.091-25.717v-54.741h-17.603v105.97h17.603v-17.557c7.149 11.704 18.07 17.557 32.773 17.557" fill="#848c91"/>
    </g>
    <g transform="translate(581.01,546.73)">
     <path d="m0 0c11.868 0 21.376-3.819 28.53-11.462 7.144-7.643 10.72-18.01 10.72-31.09v-63.419h-17.599v62.384c0 8.399-2.229 14.908-6.677 19.52-4.454 4.617-10.591 6.921-18.411 6.921-8.771 0-15.85-2.79-21.246-8.367-5.395-5.577-8.09-14.148-8.09-25.717v-54.741h-17.603v105.97h17.603v-17.557c7.148 11.704 18.07 17.557 32.773 17.557" fill="#848c91"/>
    </g>
    <g transform="translate(686.15,530.27)">
     <path d="m0 0c-9.215 0-16.851-2.657-22.904-7.963-6.057-5.311-9.807-12.397-11.254-21.271h65.945c-1.452 9.543-5.133 16.801-11.058 21.776-5.92 4.969-12.833 7.458-20.729 7.458m-34.158-44.551c1.707-9.007 5.757-15.996 12.141-20.966 6.385-4.974 14.249-7.459 23.596-7.459 13.029 0 22.508 4.901 28.429 14.713l14.613-8.465c-9.612-15.19-24.088-22.78-43.437-22.78-15.664 0-28.402 5.006-38.205 15.016-9.806 10.012-14.708 22.682-14.708 38.004 0 15.186 4.802 27.819 14.413 37.899 9.607 10.08 22.044 15.118 37.316 15.118 14.476 0 26.29-5.211 35.437-15.623 9.147-10.417 13.725-22.949 13.725-37.599 0-2.553-0.2-5.174-0.596-7.858z" fill="#848c91"/>
    </g>
    <g transform="translate(801.25,440.76)">
     <path d="m0 0c-14.876 0-27.245 5.073-37.116 15.222-9.875 10.143-14.808 22.745-14.808 37.799 0 15.049 4.933 27.65 14.808 37.798 9.871 10.144 22.24 15.218 37.116 15.218 9.739 0 18.49-2.385 26.258-7.154 7.768-4.774 13.557-11.19 17.375-19.254l-14.412-8.464c-2.503 5.369-6.353 9.674-11.55 12.901-5.202 3.222-11.09 4.837-17.671 4.837-9.871 0-18.135-3.426-24.779-10.28-6.648-6.858-9.971-15.391-9.971-25.602 0-10.081 3.323-18.549 9.971-25.403 6.644-6.853 14.908-10.28 24.779-10.28 6.581 0 12.506 1.579 17.771 4.737 5.261 3.154 9.279 7.423 12.041 12.802l14.613-8.67c-4.215-7.932-10.267-14.28-18.167-19.049-7.896-4.769-16.651-7.158-26.258-7.158" fill="#848c91"/>
    </g>
    <g transform="translate(66.246,494.01)">
     <path d="m0 0 2.552-0.339c16.106-2.107 33.011-4.11 50.251-5.944l3.325-0.343-29.486 68.776zm76.116-53.251-14.56 33.958-1.139 0.119c-21.602 2.181-43.099 4.687-63.901 7.445l-1.464 0.192-17.885-41.714h-17.481l18.945 43.84-2.529 0.361c-13.577 1.944-26.221 3.832-38.348 5.726v12.264c15.977-2.593 32.934-4.999 44.348-6.589l1.468-0.206 37.004 85.545h12.698l41.586-96.246 1.143-0.114c15.485-1.488 29.396-2.684 42.425-3.638l2.816-12.31c-13.682 1.029-26.162 2.059-37.617 3.107l-3.274 0.288 13.814-32.028z" fill="#75bee9"/>
    </g>
   </g>
  </g>
 </g>
</svg>
