<?xml version="1.0" encoding="UTF-8"?>
<svg width="1333.8" height="417.28" version="1.1" viewBox="0 0 1333.8 417.28" xmlns="http://www.w3.org/2000/svg" xmlns:cc="http://creativecommons.org/ns#" xmlns:dc="http://purl.org/dc/elements/1.1/" xmlns:rdf="http://www.w3.org/1999/02/22-rdf-syntax-ns#">
 <metadata>
  <rdf:RDF>
   <cc:Work rdf:about="">
    <dc:format>image/svg+xml</dc:format>
    <dc:type rdf:resource="http://purl.org/dc/dcmitype/StillImage"/>
    <dc:title/>
   </cc:Work>
  </rdf:RDF>
 </metadata>
 <defs>
  <clipPath id="clipPath655">
   <path d="m0 1e3h1e3v-1e3h-1e3z"/>
  </clipPath>
 </defs>
 <g transform="matrix(1.3333 0 0 -1.3333 .2466 1362.6)">
  <g transform="translate(0,366)">
   <g clip-path="url(#clipPath655)">
    <g transform="translate(811.83,551.92)">
     <path d="m0 0h-36.122v-81.657c0-6.843 1.309-11.695 3.937-14.556 2.623-2.873 6.656-4.35 12.089-4.438 5.428-0.094 12.126 0.044 20.096 0.413v-21.63c-20.641-2.774-35.759-1.065-45.356 5.134-9.604 6.191-14.4 17.885-14.4 35.077v81.657h-26.888v23.295h26.888v25.114h23.634v-25.114h36.122z" fill="#848c91"/>
    </g>
    <g transform="translate(341.5,452.07)">
     <path d="m0 0c13.579 0 24.985 4.758 34.22 14.286 9.234 9.516 13.854 21.304 13.854 35.359 0 14.048-4.62 25.83-13.854 35.358-9.235 9.516-20.641 14.28-34.22 14.28-13.767 0-25.261-4.764-34.495-14.28-9.234-9.528-13.854-21.31-13.854-35.358 0-14.055 4.62-25.843 13.854-35.359 9.234-9.528 20.728-14.286 34.495-14.286m2.986 122.58c19.013 0 35.215-7.069 48.618-21.217 13.398-14.142 20.097-31.383 20.097-51.717 0-20.34-6.699-37.582-20.097-51.724-13.403-14.142-29.605-21.216-48.618-21.216-22.456 0-39.566 9.152-51.335 27.458v-79.319h-23.633v198.31h23.633v-28.028c11.769 18.3 28.879 27.453 51.335 27.453" fill="#848c91"/>
    </g>
    <g transform="translate(503.65,574.64)">
     <path d="m0 0c15.933 0 28.697-5.127 38.301-15.388 9.592-10.261 14.392-24.178 14.392-41.738v-88.84h-23.626v87.45c0 11.275-2.993 20.015-8.964 26.206-5.98 6.198-14.218 9.29-24.717 9.29-11.776 0-21.279-3.744-28.522-11.231s-10.862-18.994-10.862-34.526v-77.189h-23.633v194.13h23.633v-71.734c9.597 15.714 24.259 23.571 43.998 23.571" fill="#848c91"/>
    </g>
    <g transform="translate(647.61,452.35)">
     <path d="m0 0c13.579 0 24.985 4.714 34.226 14.143 9.234 9.427 13.847 21.166 13.847 35.22 0 14.049-4.613 25.787-13.847 35.221-9.241 9.429-20.647 14.143-34.226 14.143-13.403 0-24.716-4.714-33.95-14.143-9.235-9.434-13.855-21.172-13.855-35.221 0-14.054 4.62-25.793 13.855-35.22 9.234-9.429 20.547-14.143 33.95-14.143m50.791-2.498c-13.948-14.055-30.877-21.078-50.791-21.078-19.921 0-36.805 7.023-50.653 21.078-13.854 14.049-20.779 31.34-20.779 51.861 0 20.522 6.925 37.807 20.779 51.862 13.848 14.048 30.732 21.072 50.653 21.072 19.914 0 36.843-7.024 50.791-21.072 13.941-14.055 20.916-31.34 20.916-51.862 0-20.521-6.975-37.812-20.916-51.861" fill="#848c91"/>
    </g>
    <g transform="translate(892.32,452.35)">
     <path d="m0 0c13.579 0 24.985 4.714 34.226 14.143 9.234 9.427 13.847 21.166 13.847 35.22 0 14.049-4.613 25.787-13.847 35.221-9.241 9.429-20.647 14.143-34.226 14.143-13.403 0-24.716-4.714-33.95-14.143-9.235-9.434-13.855-21.172-13.855-35.221 0-14.054 4.62-25.793 13.855-35.22 9.234-9.429 20.547-14.143 33.95-14.143m50.791-2.498c-13.948-14.055-30.877-21.078-50.791-21.078-19.921 0-36.805 7.023-50.653 21.078-13.854 14.049-20.779 31.34-20.779 51.861 0 20.522 6.925 37.807 20.779 51.862 13.848 14.048 30.732 21.072 50.653 21.072 19.914 0 36.843-7.024 50.791-21.072 13.941-14.055 20.916-31.34 20.916-51.862 0-20.521-6.975-37.812-20.916-51.861" fill="#848c91"/>
    </g>
    <path d="m997 383.58h-70.899v23.633h70.899z" fill="#75bee9"/>
    <path d="m973.37 454.48h23.633v-70.899h-23.633z" fill="#75bee9"/>
    <g transform="translate(89.516,501.94)">
     <path d="m0 0 3.51-0.466c22.157-2.9 45.414-5.656 69.131-8.178l4.573-0.472-40.564 94.615zm104.71-73.257-20.03 46.715-1.566 0.165c-29.718 3.001-59.291 6.448-87.908 10.241l-2.014 0.264-24.603-57.385h-24.05l26.063 60.31-3.479 0.497c-18.677 2.674-36.072 5.272-52.755 7.876v16.872c21.98-3.567 45.307-6.876 61.009-9.065l2.019-0.283 50.906 117.68h17.469l57.209-132.4 1.573-0.157c22.71-2.184 42.96-3.907 61.902-5.26v-16.651c-18.822 1.415-35.657 2.805-51.415 4.246l-4.504 0.396 19.004-44.061z" fill="#75bee9"/>
    </g>
   </g>
  </g>
 </g>
</svg>
