<?xml version="1.0" encoding="utf-8"?>
<!-- Generator: Adobe Illustrator 27.3.1, SVG Export Plug-In . SVG Version: 6.00 Build 0)  -->
<svg version="1.1" id="Isolation_Mode" xmlns="http://www.w3.org/2000/svg" xmlns:xlink="http://www.w3.org/1999/xlink" x="0px"
	 y="0px" viewBox="0 0 141.7 41.1" style="enable-background:new 0 0 141.7 41.1;" xml:space="preserve">
<style type="text/css">
	.st0{fill:#1AB7EA;}
</style>
<g>
	<polygon class="st0" points="17.6,24.8 19.7,30.2 21.5,30.2 13.6,10.9 12,10.9 4.1,30.2 5.8,30.2 8,24.8 8.4,23.5 12.8,12.9 
		17.1,23.5 	"/>
	<path class="st0" d="M32.7,10.9c4.2,0,6.3,1.8,6.3,5.5c0,1.8-0.6,3.2-1.7,4.2c-1.2,0.9-2.7,1.4-4.6,1.4h-6.9v8.1h-1.6V10.9H32.7z
		 M32.6,20.6c1.5,0,2.6-0.4,3.5-1.1c0.9-0.7,1.3-1.7,1.3-3c0-2.7-1.6-4.1-4.8-4.1h-6.8v8.2H32.6z"/>
	<path class="st0" d="M40.4,10.9h15.5v1.4h-7v17.8h-1.6V12.4h-7V10.9z"/>
	<path class="st0" d="M58.3,13.4c1.8-1.9,4.2-2.9,7.2-2.9c3,0,5.4,1,7.2,2.9c1.8,1.9,2.7,4.3,2.7,7.1c0,2.8-0.9,5.2-2.7,7.1
		c-1.8,1.9-4.2,2.9-7.2,2.9c-3,0-5.4-1-7.2-2.9c-1.8-1.9-2.7-4.3-2.7-7.1C55.6,17.7,56.5,15.3,58.3,13.4z M57.2,20.5
		c0,2.4,0.8,4.5,2.3,6.1c1.5,1.6,3.5,2.5,6,2.5s4.5-0.8,6-2.4c1.5-1.6,2.3-3.7,2.3-6.1c0-2.4-0.8-4.4-2.3-6.1
		c-1.5-1.6-3.5-2.4-6-2.4s-4.5,0.8-6,2.4C58,16.1,57.2,18.1,57.2,20.5z"/>
	<path class="st0" d="M79.8,12c1.3-1,3-1.5,5.2-1.5c2.1,0,4.1,0.5,6.1,1.5v1.5H91c-1.2-0.6-2.2-1-3-1.3S86.1,12,85.1,12
		c-1.7,0-3,0.4-4,1.1s-1.4,1.7-1.4,2.8c0,0.5,0.1,0.9,0.3,1.3c0.2,0.4,0.5,0.7,0.8,0.9c0.3,0.2,0.7,0.4,1.3,0.7
		c0.6,0.2,1.1,0.4,1.5,0.4c0.4,0.1,1,0.2,1.7,0.4c0.8,0.2,1.3,0.3,1.7,0.4c0.4,0.1,0.9,0.2,1.6,0.4s1.2,0.4,1.5,0.7
		c0.4,0.2,0.7,0.6,1.1,0.9c0.4,0.4,0.7,0.8,0.9,1.3c0.2,0.5,0.3,1.1,0.3,1.8c0,1.8-0.7,3.1-2,4.1c-1.3,1-3.1,1.4-5.4,1.4
		c-1.2,0-2.5-0.2-3.7-0.5c-1.3-0.4-2.3-0.8-3.3-1.5V27h0.1c2.2,1.4,4.5,2.1,6.8,2.1c1.8,0,3.1-0.4,4.1-1.1c1-0.7,1.5-1.7,1.5-3
		c0-0.6-0.1-1.1-0.4-1.5c-0.2-0.4-0.5-0.8-0.8-1c-0.3-0.3-0.8-0.5-1.4-0.7c-0.6-0.2-1.1-0.4-1.6-0.5c-0.4-0.1-1-0.2-1.8-0.4
		c-0.9-0.2-1.6-0.3-2-0.4c-0.5-0.1-1-0.3-1.7-0.6c-0.7-0.3-1.2-0.6-1.6-0.9c-0.4-0.3-0.7-0.7-1-1.3c-0.3-0.5-0.4-1.2-0.4-1.9
		C77.9,14.3,78.6,13,79.8,12z"/>
	<path class="st0" d="M101.3,10.9h1.6v9h13.2v-9h1.6v19.2h-1.6v-8.8h-13.2v8.8h-1.6V10.9z"/>
	<path class="st0" d="M122.8,10.9h1.6v8.8h2.7l7.9-8.8h2l-8.5,9.4l9.1,9.8h-2.1L127,21h-2.6v9.1h-1.6V10.9z"/>
</g>
</svg>
