<svg xmlns="http://www.w3.org/2000/svg" viewBox="0 0 1053.21 194.95"><defs><style>.cls-1{fill:#848c91;}.cls-2{fill:#75bee9;}</style></defs><g id="Layer_2" data-name="Layer 2"><g id="Layer_1-2" data-name="Layer 1"><path class="cls-1" d="M293.51,103.14a30.32,30.32,0,0,0-14.75-9.85c-5.85-1.75-11.6-3.45-17.35-5.2a63.57,63.57,0,0,1-14.91-6.3c-4.15-2.45-6.25-5.75-6.25-9.85a11.9,11.9,0,0,1,5.5-10.46,23.67,23.67,0,0,1,13.36-3.7q17,0,22.7,13.86l15.45-8.86a37.65,37.65,0,0,0-15.15-16.55,43.93,43.93,0,0,0-23-5.95q-16.06,0-26.81,9a29.24,29.24,0,0,0-10.7,23.16c0,7.2,2.05,13.15,6.15,17.75a32.34,32.34,0,0,0,14.9,9.6c5.8,1.8,11.61,3.55,17.36,5.3a64.56,64.56,0,0,1,14.8,6.45q6.15,3.75,6.15,10c0,5-2,8.75-5.95,11.1s-8.95,3.55-15.05,3.55a30.13,30.13,0,0,1-16.71-4.5,22.72,22.72,0,0,1-9.55-12.35l-15.9,9.3a38.38,38.38,0,0,0,15.7,18.4c7.35,4.6,16.15,6.9,26.46,6.9q17.4,0,28.5-8.85c7.4-5.9,11.15-13.8,11.15-23.6C299.61,114.09,297.56,107.94,293.51,103.14Z"/><path class="cls-1" d="M390.21,43.08v57.31c0,12.15-2.85,21.1-8.5,27s-13,8.75-22.25,8.75c-8.21,0-14.61-2.4-19.26-7.25s-7-11.65-7-20.45V43.08H314.75v66.41Q314.75,130,326,142c7.45,8,17.45,12,29.86,12,15.4,0,26.85-6.1,34.35-18.4v15.6h18.4V43.08Z"/><path class="cls-1" d="M522.5,56.54Q506.82,40,484.6,40q-26.25,0-40.05,21.4V42.79H426.09V194.21h18.46V132.35q13.8,21.38,40.05,21.4,22.2,0,37.9-16.55t15.71-40.35Q538.21,73.06,522.5,56.54ZM509,124.45a35.63,35.63,0,0,1-26.7,11.15q-16.12,0-26.9-11.15t-10.8-27.6c0-10.95,3.6-20.16,10.8-27.56s16.15-11.15,26.9-11.15A35.63,35.63,0,0,1,509,69.29c7.2,7.4,10.8,16.61,10.8,27.56S516.15,117.05,509,124.45Z"/><path class="cls-1" d="M651.32,56.54Q635.65,40,613.41,40c-17.55,0-30.85,7.1-40,21.4V42.79H554.91V194.21h18.45V132.35c9.2,14.25,22.5,21.4,40,21.4q22.22,0,37.91-16.55T667,96.85Q667,73.06,651.32,56.54Zm-13.55,67.91a35.65,35.65,0,0,1-26.71,11.15q-16.12,0-26.9-11.15t-10.8-27.6c0-10.95,3.6-20.16,10.8-27.56s16.15-11.15,26.9-11.15a35.65,35.65,0,0,1,26.71,11.15c7.2,7.4,10.8,16.61,10.8,27.56S645,117.05,637.77,124.45Z"/><path class="cls-1" d="M777.81,56.39C767,45.44,753.71,40,738.2,40s-28.7,5.45-39.5,16.4-16.2,24.45-16.2,40.46,5.4,29.5,16.2,40.45,23.95,16.45,39.5,16.45S767,148.3,777.81,137.3s16.3-24.4,16.3-40.45S788.71,67.39,777.81,56.39Zm-12.9,68q-10.8,11-26.71,11a35.66,35.66,0,0,1-26.5-11q-10.8-11-10.8-27.5t10.8-27.46a37.55,37.55,0,0,1,53.21,0q10.8,11,10.8,27.46T764.91,124.35Z"/><path class="cls-1" d="M828,60.94V42.79h-18.4V151H828V93.65q0-17.79,9.75-25.76c6.5-5.35,14.3-7.8,23.3-7.35V42.94C847.66,42.94,834.09,47.54,828,60.94Z"/><path class="cls-1" d="M940.67,60.94V42.79h-28.2V18.14H894V42.79h-21V60.94h21V119.6q0,20.1,11.25,27.35c7.5,4.85,19.3,6.15,35.4,4V134.1c-6.25.25-11.45.35-15.7.3s-7.4-1.2-9.4-3.45-3.1-6-3.1-11.35V60.94Z"/><path class="cls-2" d="M148.47,151.24,132.85,114.8l-1.22-.13c-23.18-2.34-46.25-5-68.57-8l-1.57-.2-19.2,44.76H23.53l20.33-47-2.71-.39C26.58,101.72,13,99.7,0,97.67V84.5c17.15,2.79,35.34,5.37,47.59,7.08l1.57.22L88.87,0H102.5l44.62,103.28,1.23.12c16.62,1.6,31.54,2.88,45.53,3.9l3,13.21c-14.68-1.1-28.08-2.21-40.37-3.33l-3.51-.31,14.82,34.37ZM66.8,94.1l2.73.36c17.29,2.26,35.43,4.41,53.93,6.38l3.56.37L95.38,27.41Z"/><path class="cls-2" d="M1044.65,115.52a29.39,29.39,0,0,0-37.91-2.94,29.31,29.31,0,0,0-38,2.94,29.36,29.36,0,0,0,0,41.42l5.87,5.87,12.6-12.56-5.87-5.86a11.46,11.46,0,0,1,0-16.31,11,11,0,0,1,8-3.32,11.22,11.22,0,0,1,8.09,3.36l9.28,9.29,9-9.29a11.45,11.45,0,0,1,19.53,8.09,10.92,10.92,0,0,1-2.21,6.78l12.65,12.65a28.58,28.58,0,0,0,7.36-19.43A29.16,29.16,0,0,0,1044.65,115.52Zm-37.91,54.22-9-9-12.56,12.61,21.56,21.6,28.62-28.72-12.56-12.61Z"/></g></g></svg>