<svg xmlns="http://www.w3.org/2000/svg" viewBox="0 0 747.58 189.83"><defs><style>.cls-1{fill:#75bee9;}.cls-2{fill:#848c91;}</style></defs><g id="Layer_2" data-name="Layer 2"><g id="Layer_1-2" data-name="Layer 1"><path class="cls-1" d="M728.84,133.62h0a37.47,37.47,0,0,1-37.48,37.47h0v18.74h0a56.22,56.22,0,0,0,56.22-56.21H728.84Z"/><path class="cls-1" d="M150.92,154.07,135,117l-1.25-.13c-23.56-2.38-47-5.11-69.7-8.12l-1.59-.21L43,154.07H23.92l20.67-47.82-2.76-.39C27,103.74,13.23,101.68,0,99.62V86.24c17.43,2.83,35.92,5.45,48.37,7.19l1.6.22L90.33.34h13.86l45.36,105,1.24.13c16.89,1.62,32.07,2.92,46.28,4L201.73,123c-14.92-1.12-30.13-2.38-42.62-3.52l-3.57-.31,15.06,34.93ZM67.89,96l2.79.37c17.56,2.3,36,4.48,54.81,6.48l3.62.38L97,28.2Z"/><path class="cls-2" d="M275.33,38.42h20.75L250.65,154.08H228.14L182.85,38.42h20.74l35.81,94.46Z"/><path class="cls-2" d="M319.78,25.73a12.15,12.15,0,0,1-9-3.74,12.41,12.41,0,0,1-3.65-9,12.8,12.8,0,0,1,3.65-9.13,12,12,0,0,1,9-3.85,11.76,11.76,0,0,1,8.83,3.85A12.81,12.81,0,0,1,332.27,13a12.42,12.42,0,0,1-3.66,9A11.88,11.88,0,0,1,319.78,25.73Z"/><rect class="cls-2" x="310.3" y="38.42" width="18.74" height="115.66"/><path class="cls-2" d="M442.11,0h18.74V153.64H442.11V131.87q-14,21.76-40.7,21.77-22.62,0-38.55-16.83t-15.93-41q0-24.18,15.93-41T401.41,38q26.7,0,40.7,21.76ZM403.77,135.17q16.37,0,27.35-11.33t11-28q0-16.69-11-28T403.77,56.45a36.29,36.29,0,0,0-27.13,11.32q-11,11.33-11,28t11,28A36.3,36.3,0,0,0,403.77,135.17Z"/><path class="cls-2" d="M496.88,105q2.79,14.73,13.25,22.87T535.86,136q21.32,0,31-16l15.94,9.24q-15.72,24.86-47.38,24.85-25.62,0-41.67-16.39t-16-41.45q0-24.84,15.72-41.33t40.7-16.49q23.68,0,38.65,17t15,41a59.05,59.05,0,0,1-.65,8.57Zm37.26-48.6q-15.07,0-25,8.69t-12.28,23.2h71.93q-2.37-15.61-12.06-23.75A34.12,34.12,0,0,0,534.14,56.44Z"/><path class="cls-2" d="M699.25,137.36A54.6,54.6,0,0,1,659,154.08q-23.7,0-40.16-16.72T602.34,96.24q0-24.4,16.48-41.12T659,38.42a54.66,54.66,0,0,1,40.27,16.7q16.57,16.73,16.58,41.12T699.25,137.36Zm-40.27-2a36.53,36.53,0,0,0,27.14-11.21q11-11.22,11-27.93t-11-27.92a38.17,38.17,0,0,0-54.06,0q-11,11.22-11,27.92t11,27.93A36.23,36.23,0,0,0,659,135.38Z"/></g></g></svg>