<svg xmlns="http://www.w3.org/2000/svg" width="16.105" height="15.651" viewBox="0 0 16.105 15.651">
  <path id="Path_1" data-name="Path 1" d="M769.2,310.092a2.474,2.474,0,0,1-2.469-2.469V296.91a2.474,2.474,0,0,1,2.469-2.469h2.853a.617.617,0,0,1,0,1.234H769.2a1.239,1.239,0,0,0-1.234,1.235v10.713a1.239,1.239,0,0,0,1.234,1.235h2.853a.617.617,0,0,1,0,1.234Zm7.091-4.216a.611.611,0,0,1-.436-.181l-3-3-.059-.078a.617.617,0,0,1-.114-.35.606.606,0,0,1,.087-.314l.068-.093,3.019-3.021a.617.617,0,1,1,.872.873l-1.939,1.939h7.431a.617.617,0,1,1,0,1.233h-7.431l1.939,1.939a.618.618,0,0,1-.436,1.054Z" transform="translate(-766.73 -294.441)" fill="#7d8891" opacity="0.75"/>
</svg>
