<?xml version="1.0" encoding="utf-8"?>
<!-- Generator: Adobe Illustrator 21.1.0, SVG Export Plug-In . SVG Version: 6.00 Build 0)  -->
<svg version="1.1" id="Isolation_Mode" xmlns="http://www.w3.org/2000/svg" xmlns:xlink="http://www.w3.org/1999/xlink" x="0px"
	 y="0px" width="141.7px" height="41.1px" viewBox="0 0 141.7 41.1" style="enable-background:new 0 0 141.7 41.1;"
	 xml:space="preserve">
<style type="text/css">
	.st0{fill:#FFFFFF;}
	.st1{fill:#A7A9AC;}
</style>
<path class="st0" d="M47.9,8.7c-1.4,0-4.5,0.1-5.8,0.1v23.6H44v-9.5c1.3,0.1,2.8,0.1,3.9,0.1c5.8,0,8.3-3.5,8.4-7.2
	C56.3,12.3,54.4,8.7,47.9,8.7z M47.7,21.4c-1.3,0-2.5-0.1-3.8-0.2V10.6c1.1-0.1,3.1-0.1,4.1-0.1c4.5,0,6.3,2.2,6.2,5.4
	C54.2,19.1,52,21.4,47.7,21.4z"/>
<path class="st0" d="M95.4,8.5c-6.8,0-11.8,5.3-11.8,12.1c0,7.1,5.1,12.1,11.8,12.1c6.7,0,11.8-5.2,11.8-12.1
	C107.2,13.5,102.1,8.5,95.4,8.5z M95.4,30.8c-5.6,0-9.9-4.4-9.9-10.3c0-5.9,4.3-10.3,9.9-10.3c5.5,0,9.9,4.4,9.9,10.3
	C105.3,26.3,101.2,30.8,95.4,30.8z"/>
<polygon class="st0" points="33.7,32.3 24.6,11.1 15.5,32.3 13.6,32.3 23.9,8.6 25.4,8.6 35.7,32.4 33.7,32.4 "/>
<polygon class="st0" points="80.1,10.5 71.4,10.5 71.4,32.3 69.6,32.3 69.6,10.5 60.9,10.5 60.9,8.8 80.2,8.8 80.2,10.5 "/>
<path class="st0" d="M120.6,32.7c-2.8,0-6.1-1.3-7.2-3.4l1.1-1.3c1.4,1.9,4,2.9,6.1,2.9c2.9,0,5.6-1.5,5.6-4.4
	c0-6.7-12.2-4.2-12.2-12.1c0-3.3,2.5-5.9,6.9-5.9c2.6,0,5,0.9,6.3,2.4l-1,1.4c-1.4-1.3-3.1-2-5.3-2c-3.1,0-5,1.6-5,4.1
	c0,6.6,12.2,3.9,12.2,12.1C128.1,30.2,124.8,32.7,120.6,32.7"/>
<path class="st1" d="M7.9,22.3c41.7,6.6,84.2,6.6,126,0c0.1,0.4,0.1,0.7,0.2,1.1C92.2,30,49.6,30,7.7,23.4C7.8,23,7.8,22.6,7.9,22.3
	"/>
</svg>
